<mxfile host="app.diagrams.net" agent="Mozilla/5.0 (Windows NT 10.0; Win64; x64; rv:128.0) Gecko/20100101 Firefox/128.0" version="24.7.6">
  <diagram id="C5RBs43oDa-KdzZeNtuy" name="Page-1">
    <mxGraphModel dx="1562" dy="0" grid="1" gridSize="10" guides="1" tooltips="1" connect="1" arrows="1" fold="1" page="1" pageScale="1" pageWidth="827" pageHeight="1169" math="0" shadow="0">
      <root>
        <mxCell id="WIyWlLk6GJQsqaUBKTNV-0" />
        <mxCell id="WIyWlLk6GJQsqaUBKTNV-1" parent="WIyWlLk6GJQsqaUBKTNV-0" />
        <mxCell id="NV9EL7wZ4nQcyqK0Ea53-78" value="" style="rounded=0;whiteSpace=wrap;html=1;" vertex="1" parent="WIyWlLk6GJQsqaUBKTNV-1">
          <mxGeometry x="40" width="660" height="100" as="geometry" />
        </mxCell>
        <mxCell id="NV9EL7wZ4nQcyqK0Ea53-77" value="" style="rounded=0;whiteSpace=wrap;html=1;" vertex="1" parent="WIyWlLk6GJQsqaUBKTNV-1">
          <mxGeometry x="40" y="100" width="660" height="990" as="geometry" />
        </mxCell>
        <mxCell id="NV9EL7wZ4nQcyqK0Ea53-1" value="" style="rounded=0;orthogonalLoop=1;jettySize=auto;html=1;" edge="1" parent="WIyWlLk6GJQsqaUBKTNV-1" source="NV9EL7wZ4nQcyqK0Ea53-0">
          <mxGeometry relative="1" as="geometry">
            <mxPoint x="220" y="219" as="targetPoint" />
          </mxGeometry>
        </mxCell>
        <mxCell id="NV9EL7wZ4nQcyqK0Ea53-18" style="edgeStyle=orthogonalEdgeStyle;rounded=0;orthogonalLoop=1;jettySize=auto;html=1;entryX=1;entryY=0.5;entryDx=0;entryDy=0;exitX=1;exitY=0.5;exitDx=0;exitDy=0;" edge="1" parent="WIyWlLk6GJQsqaUBKTNV-1" source="WIyWlLk6GJQsqaUBKTNV-6" target="NV9EL7wZ4nQcyqK0Ea53-0">
          <mxGeometry relative="1" as="geometry">
            <Array as="points">
              <mxPoint x="320" y="240" />
              <mxPoint x="320" y="140" />
            </Array>
          </mxGeometry>
        </mxCell>
        <mxCell id="WIyWlLk6GJQsqaUBKTNV-6" value="H &amp;lt;100 hrs" style="rhombus;whiteSpace=wrap;html=1;shadow=0;fontFamily=Helvetica;fontSize=12;align=center;strokeWidth=1;spacing=6;spacingTop=-4;" parent="WIyWlLk6GJQsqaUBKTNV-1" vertex="1">
          <mxGeometry x="171" y="200" width="100" height="80" as="geometry" />
        </mxCell>
        <mxCell id="WIyWlLk6GJQsqaUBKTNV-12" value="Agendar Cita" style="rounded=1;whiteSpace=wrap;html=1;fontSize=12;glass=0;strokeWidth=1;shadow=0;arcSize=50;" parent="WIyWlLk6GJQsqaUBKTNV-1" vertex="1">
          <mxGeometry x="161" y="400" width="120" height="40" as="geometry" />
        </mxCell>
        <mxCell id="NV9EL7wZ4nQcyqK0Ea53-6" value="" style="rounded=0;orthogonalLoop=1;jettySize=auto;html=1;" edge="1" parent="WIyWlLk6GJQsqaUBKTNV-1" source="NV9EL7wZ4nQcyqK0Ea53-4" target="NV9EL7wZ4nQcyqK0Ea53-0">
          <mxGeometry relative="1" as="geometry" />
        </mxCell>
        <mxCell id="NV9EL7wZ4nQcyqK0Ea53-0" value="Colecta Horometro" style="rounded=1;whiteSpace=wrap;html=1;fontSize=12;glass=0;strokeWidth=1;shadow=0;arcSize=50;" vertex="1" parent="WIyWlLk6GJQsqaUBKTNV-1">
          <mxGeometry x="161" y="120" width="120" height="40" as="geometry" />
        </mxCell>
        <mxCell id="NV9EL7wZ4nQcyqK0Ea53-4" value="Check List" style="rounded=1;whiteSpace=wrap;html=1;fontSize=12;glass=0;strokeWidth=1;shadow=0;arcSize=50;" vertex="1" parent="WIyWlLk6GJQsqaUBKTNV-1">
          <mxGeometry x="160" y="30" width="120" height="40" as="geometry" />
        </mxCell>
        <mxCell id="NV9EL7wZ4nQcyqK0Ea53-13" value="" style="edgeStyle=orthogonalEdgeStyle;rounded=0;orthogonalLoop=1;jettySize=auto;html=1;" edge="1" parent="WIyWlLk6GJQsqaUBKTNV-1">
          <mxGeometry relative="1" as="geometry">
            <mxPoint x="220.5" y="360" as="sourcePoint" />
            <mxPoint x="221" y="400" as="targetPoint" />
          </mxGeometry>
        </mxCell>
        <mxCell id="NV9EL7wZ4nQcyqK0Ea53-19" value="Proyeccion Mantenimiento" style="rounded=1;whiteSpace=wrap;html=1;fontSize=12;glass=0;strokeWidth=1;shadow=0;arcSize=50;" vertex="1" parent="WIyWlLk6GJQsqaUBKTNV-1">
          <mxGeometry x="160" y="320" width="120" height="40" as="geometry" />
        </mxCell>
        <mxCell id="NV9EL7wZ4nQcyqK0Ea53-20" value="" style="edgeStyle=orthogonalEdgeStyle;rounded=0;orthogonalLoop=1;jettySize=auto;html=1;" edge="1" parent="WIyWlLk6GJQsqaUBKTNV-1" source="WIyWlLk6GJQsqaUBKTNV-6">
          <mxGeometry relative="1" as="geometry">
            <mxPoint x="221" y="320" as="targetPoint" />
            <mxPoint x="221" y="281" as="sourcePoint" />
          </mxGeometry>
        </mxCell>
        <mxCell id="NV9EL7wZ4nQcyqK0Ea53-22" value="No" style="text;whiteSpace=wrap;html=1;" vertex="1" parent="WIyWlLk6GJQsqaUBKTNV-1">
          <mxGeometry x="280" y="210" width="50" height="40" as="geometry" />
        </mxCell>
        <mxCell id="NV9EL7wZ4nQcyqK0Ea53-23" value="Si" style="text;whiteSpace=wrap;html=1;" vertex="1" parent="WIyWlLk6GJQsqaUBKTNV-1">
          <mxGeometry x="230" y="280" width="50" height="40" as="geometry" />
        </mxCell>
        <mxCell id="NV9EL7wZ4nQcyqK0Ea53-26" value="" style="rounded=0;orthogonalLoop=1;jettySize=auto;html=1;entryX=0.5;entryY=0;entryDx=0;entryDy=0;" edge="1" parent="WIyWlLk6GJQsqaUBKTNV-1" target="NV9EL7wZ4nQcyqK0Ea53-28">
          <mxGeometry relative="1" as="geometry">
            <mxPoint x="220.5" y="440" as="sourcePoint" />
            <mxPoint x="221" y="484" as="targetPoint" />
          </mxGeometry>
        </mxCell>
        <mxCell id="NV9EL7wZ4nQcyqK0Ea53-27" style="edgeStyle=orthogonalEdgeStyle;rounded=0;orthogonalLoop=1;jettySize=auto;html=1;entryX=1;entryY=0.5;entryDx=0;entryDy=0;" edge="1" parent="WIyWlLk6GJQsqaUBKTNV-1" source="NV9EL7wZ4nQcyqK0Ea53-28" target="WIyWlLk6GJQsqaUBKTNV-12">
          <mxGeometry relative="1" as="geometry">
            <mxPoint x="281" y="462" as="targetPoint" />
            <Array as="points">
              <mxPoint x="321" y="520" />
              <mxPoint x="321" y="420" />
            </Array>
          </mxGeometry>
        </mxCell>
        <mxCell id="NV9EL7wZ4nQcyqK0Ea53-28" value="Cumplio Programacion" style="rhombus;whiteSpace=wrap;html=1;shadow=0;fontFamily=Helvetica;fontSize=12;align=center;strokeWidth=1;spacing=6;spacingTop=-4;" vertex="1" parent="WIyWlLk6GJQsqaUBKTNV-1">
          <mxGeometry x="171" y="480" width="100" height="80" as="geometry" />
        </mxCell>
        <mxCell id="NV9EL7wZ4nQcyqK0Ea53-29" value="" style="edgeStyle=orthogonalEdgeStyle;rounded=0;orthogonalLoop=1;jettySize=auto;html=1;" edge="1" parent="WIyWlLk6GJQsqaUBKTNV-1" target="NV9EL7wZ4nQcyqK0Ea53-38">
          <mxGeometry relative="1" as="geometry">
            <mxPoint x="221" y="611" as="targetPoint" />
            <mxPoint x="221" y="560" as="sourcePoint" />
          </mxGeometry>
        </mxCell>
        <mxCell id="NV9EL7wZ4nQcyqK0Ea53-30" value="No" style="text;whiteSpace=wrap;html=1;" vertex="1" parent="WIyWlLk6GJQsqaUBKTNV-1">
          <mxGeometry x="281" y="490" width="50" height="40" as="geometry" />
        </mxCell>
        <mxCell id="NV9EL7wZ4nQcyqK0Ea53-31" value="Si" style="text;whiteSpace=wrap;html=1;" vertex="1" parent="WIyWlLk6GJQsqaUBKTNV-1">
          <mxGeometry x="230" y="559" width="50" height="40" as="geometry" />
        </mxCell>
        <mxCell id="NV9EL7wZ4nQcyqK0Ea53-60" value="" style="edgeStyle=orthogonalEdgeStyle;rounded=0;orthogonalLoop=1;jettySize=auto;html=1;" edge="1" parent="WIyWlLk6GJQsqaUBKTNV-1" source="NV9EL7wZ4nQcyqK0Ea53-36" target="NV9EL7wZ4nQcyqK0Ea53-44">
          <mxGeometry relative="1" as="geometry" />
        </mxCell>
        <mxCell id="NV9EL7wZ4nQcyqK0Ea53-71" style="edgeStyle=orthogonalEdgeStyle;rounded=0;orthogonalLoop=1;jettySize=auto;html=1;exitX=1;exitY=0.5;exitDx=0;exitDy=0;endArrow=none;endFill=0;" edge="1" parent="WIyWlLk6GJQsqaUBKTNV-1" source="NV9EL7wZ4nQcyqK0Ea53-36">
          <mxGeometry relative="1" as="geometry">
            <mxPoint x="330" y="700" as="targetPoint" />
          </mxGeometry>
        </mxCell>
        <mxCell id="NV9EL7wZ4nQcyqK0Ea53-36" value="OS" style="rounded=1;whiteSpace=wrap;html=1;fontSize=12;glass=0;strokeWidth=1;shadow=0;arcSize=50;" vertex="1" parent="WIyWlLk6GJQsqaUBKTNV-1">
          <mxGeometry x="161" y="680" width="120" height="40" as="geometry" />
        </mxCell>
        <mxCell id="NV9EL7wZ4nQcyqK0Ea53-37" value="" style="edgeStyle=orthogonalEdgeStyle;rounded=0;orthogonalLoop=1;jettySize=auto;html=1;" edge="1" parent="WIyWlLk6GJQsqaUBKTNV-1">
          <mxGeometry relative="1" as="geometry">
            <mxPoint x="220.5" y="639" as="sourcePoint" />
            <mxPoint x="221" y="680" as="targetPoint" />
          </mxGeometry>
        </mxCell>
        <mxCell id="NV9EL7wZ4nQcyqK0Ea53-65" style="edgeStyle=elbowEdgeStyle;rounded=0;orthogonalLoop=1;jettySize=auto;html=1;exitX=1;exitY=0.5;exitDx=0;exitDy=0;" edge="1" parent="WIyWlLk6GJQsqaUBKTNV-1" source="NV9EL7wZ4nQcyqK0Ea53-38">
          <mxGeometry relative="1" as="geometry">
            <mxPoint x="380" y="700" as="targetPoint" />
            <Array as="points">
              <mxPoint x="330" y="670" />
            </Array>
          </mxGeometry>
        </mxCell>
        <mxCell id="NV9EL7wZ4nQcyqK0Ea53-38" value="Prefactura" style="rounded=1;whiteSpace=wrap;html=1;fontSize=12;glass=0;strokeWidth=1;shadow=0;arcSize=45;" vertex="1" parent="WIyWlLk6GJQsqaUBKTNV-1">
          <mxGeometry x="161" y="599" width="120" height="40" as="geometry" />
        </mxCell>
        <mxCell id="NV9EL7wZ4nQcyqK0Ea53-42" value="Remision Factura Contabilidad" style="rounded=1;whiteSpace=wrap;html=1;fontSize=12;glass=0;strokeWidth=1;shadow=0;arcSize=50;" vertex="1" parent="WIyWlLk6GJQsqaUBKTNV-1">
          <mxGeometry x="161" y="840" width="120" height="40" as="geometry" />
        </mxCell>
        <mxCell id="NV9EL7wZ4nQcyqK0Ea53-61" style="edgeStyle=orthogonalEdgeStyle;rounded=0;orthogonalLoop=1;jettySize=auto;html=1;exitX=0.5;exitY=1;exitDx=0;exitDy=0;entryX=0.5;entryY=0;entryDx=0;entryDy=0;" edge="1" parent="WIyWlLk6GJQsqaUBKTNV-1" source="NV9EL7wZ4nQcyqK0Ea53-44" target="NV9EL7wZ4nQcyqK0Ea53-42">
          <mxGeometry relative="1" as="geometry" />
        </mxCell>
        <mxCell id="NV9EL7wZ4nQcyqK0Ea53-69" style="edgeStyle=orthogonalEdgeStyle;rounded=0;orthogonalLoop=1;jettySize=auto;html=1;exitX=1;exitY=0.5;exitDx=0;exitDy=0;endArrow=none;endFill=0;" edge="1" parent="WIyWlLk6GJQsqaUBKTNV-1" source="NV9EL7wZ4nQcyqK0Ea53-44">
          <mxGeometry relative="1" as="geometry">
            <mxPoint x="330" y="700" as="targetPoint" />
            <Array as="points">
              <mxPoint x="331" y="780" />
            </Array>
          </mxGeometry>
        </mxCell>
        <mxCell id="NV9EL7wZ4nQcyqK0Ea53-44" value="Factura" style="rounded=1;whiteSpace=wrap;html=1;fontSize=12;glass=0;strokeWidth=1;shadow=0;arcSize=50;" vertex="1" parent="WIyWlLk6GJQsqaUBKTNV-1">
          <mxGeometry x="161" y="760" width="120" height="40" as="geometry" />
        </mxCell>
        <mxCell id="NV9EL7wZ4nQcyqK0Ea53-48" value="" style="rounded=0;orthogonalLoop=1;jettySize=auto;html=1;" edge="1" parent="WIyWlLk6GJQsqaUBKTNV-1">
          <mxGeometry relative="1" as="geometry">
            <mxPoint x="220" y="879" as="sourcePoint" />
            <mxPoint x="220" y="923" as="targetPoint" />
          </mxGeometry>
        </mxCell>
        <mxCell id="NV9EL7wZ4nQcyqK0Ea53-64" style="edgeStyle=orthogonalEdgeStyle;rounded=0;orthogonalLoop=1;jettySize=auto;html=1;exitX=0.5;exitY=1;exitDx=0;exitDy=0;entryX=0.5;entryY=0;entryDx=0;entryDy=0;" edge="1" parent="WIyWlLk6GJQsqaUBKTNV-1" source="NV9EL7wZ4nQcyqK0Ea53-50" target="NV9EL7wZ4nQcyqK0Ea53-63">
          <mxGeometry relative="1" as="geometry" />
        </mxCell>
        <mxCell id="NV9EL7wZ4nQcyqK0Ea53-75" style="edgeStyle=orthogonalEdgeStyle;rounded=0;orthogonalLoop=1;jettySize=auto;html=1;exitX=1;exitY=0.5;exitDx=0;exitDy=0;entryX=0.5;entryY=1;entryDx=0;entryDy=0;" edge="1" parent="WIyWlLk6GJQsqaUBKTNV-1" source="NV9EL7wZ4nQcyqK0Ea53-50" target="NV9EL7wZ4nQcyqK0Ea53-70">
          <mxGeometry relative="1" as="geometry" />
        </mxCell>
        <mxCell id="NV9EL7wZ4nQcyqK0Ea53-50" value="Pago Efectuado" style="rhombus;whiteSpace=wrap;html=1;shadow=0;fontFamily=Helvetica;fontSize=12;align=center;strokeWidth=1;spacing=6;spacingTop=-4;" vertex="1" parent="WIyWlLk6GJQsqaUBKTNV-1">
          <mxGeometry x="170" y="924" width="100" height="80" as="geometry" />
        </mxCell>
        <mxCell id="NV9EL7wZ4nQcyqK0Ea53-52" value="No" style="text;whiteSpace=wrap;html=1;" vertex="1" parent="WIyWlLk6GJQsqaUBKTNV-1">
          <mxGeometry x="280" y="934" width="50" height="40" as="geometry" />
        </mxCell>
        <mxCell id="NV9EL7wZ4nQcyqK0Ea53-53" value="Si" style="text;whiteSpace=wrap;html=1;" vertex="1" parent="WIyWlLk6GJQsqaUBKTNV-1">
          <mxGeometry x="230" y="1004" width="50" height="40" as="geometry" />
        </mxCell>
        <mxCell id="NV9EL7wZ4nQcyqK0Ea53-63" value="Comprobante Pago" style="rounded=1;whiteSpace=wrap;html=1;fontSize=12;glass=0;strokeWidth=1;shadow=0;arcSize=50;" vertex="1" parent="WIyWlLk6GJQsqaUBKTNV-1">
          <mxGeometry x="161" y="1040" width="120" height="40" as="geometry" />
        </mxCell>
        <mxCell id="NV9EL7wZ4nQcyqK0Ea53-66" value="Archivo del Equipo" style="rounded=1;whiteSpace=wrap;html=1;fontSize=12;glass=0;strokeWidth=1;shadow=0;arcSize=50;" vertex="1" parent="WIyWlLk6GJQsqaUBKTNV-1">
          <mxGeometry x="510" y="680" width="120" height="40" as="geometry" />
        </mxCell>
        <mxCell id="NV9EL7wZ4nQcyqK0Ea53-72" style="edgeStyle=orthogonalEdgeStyle;rounded=0;orthogonalLoop=1;jettySize=auto;html=1;exitX=1;exitY=0.5;exitDx=0;exitDy=0;entryX=0;entryY=0.5;entryDx=0;entryDy=0;" edge="1" parent="WIyWlLk6GJQsqaUBKTNV-1" source="NV9EL7wZ4nQcyqK0Ea53-70" target="NV9EL7wZ4nQcyqK0Ea53-66">
          <mxGeometry relative="1" as="geometry" />
        </mxCell>
        <mxCell id="NV9EL7wZ4nQcyqK0Ea53-79" value="Diario" style="rounded=0;whiteSpace=wrap;html=1;direction=north;horizontal=1;textDirection=vertical-rl;" vertex="1" parent="WIyWlLk6GJQsqaUBKTNV-1">
          <mxGeometry x="40" width="60" height="100" as="geometry" />
        </mxCell>
        <mxCell id="NV9EL7wZ4nQcyqK0Ea53-70" value="Control de OS" style="ellipse;whiteSpace=wrap;html=1;aspect=fixed;" vertex="1" parent="WIyWlLk6GJQsqaUBKTNV-1">
          <mxGeometry x="380" y="660" width="80" height="80" as="geometry" />
        </mxCell>
        <mxCell id="NV9EL7wZ4nQcyqK0Ea53-80" value="Semanal" style="rounded=0;whiteSpace=wrap;html=1;direction=north;horizontal=1;textDirection=vertical-rl;" vertex="1" parent="WIyWlLk6GJQsqaUBKTNV-1">
          <mxGeometry x="40" y="100" width="60" height="990" as="geometry" />
        </mxCell>
      </root>
    </mxGraphModel>
  </diagram>
</mxfile>
